<svg xmlns="http://www.w3.org/2000/svg" viewBox="0 0 128 128" width="128" height="128">
  <defs>
    <clipPath id="d-clip">
      <path d="M 24,4 L 64,4 A 60,60 0 0 1 64,124 L 24,124 Z"/>
    </clipPath>
  </defs>
  <g clip-path="url(#d-clip)">
    <line x1="64" y1="64" x2="64" y2="-10" stroke="#2244FF" stroke-width="3.2"/>
    <line x1="64" y1="64" x2="74.9" y2="-8.6" stroke="#2244FF" stroke-width="3.2"/>
    <line x1="64" y1="64" x2="85.5" y2="-4.5" stroke="#2244FF" stroke-width="3.2"/>
    <line x1="64" y1="64" x2="95.5" y2="2.1" stroke="#2244FF" stroke-width="3.2"/>
    <line x1="64" y1="64" x2="104.5" y2="11" stroke="#2244FF" stroke-width="3.2"/>
    <line x1="64" y1="64" x2="112.1" y2="21.7" stroke="#2244FF" stroke-width="3.2"/>
    <line x1="64" y1="64" x2="118" y2="33.8" stroke="#2244FF" stroke-width="3.2"/>
    <line x1="64" y1="64" x2="122" y2="47" stroke="#2244FF" stroke-width="3.2"/>
    <line x1="64" y1="64" x2="124" y2="61" stroke="#2244FF" stroke-width="3.2"/>
    <line x1="64" y1="64" x2="124" y2="67" stroke="#2244FF" stroke-width="3.2"/>
    <line x1="64" y1="64" x2="122" y2="81" stroke="#2244FF" stroke-width="3.2"/>
    <line x1="64" y1="64" x2="118" y2="94.2" stroke="#2244FF" stroke-width="3.2"/>
    <line x1="64" y1="64" x2="112.1" y2="106.3" stroke="#2244FF" stroke-width="3.2"/>
    <line x1="64" y1="64" x2="104.5" y2="117" stroke="#2244FF" stroke-width="3.2"/>
    <line x1="64" y1="64" x2="95.5" y2="125.9" stroke="#2244FF" stroke-width="3.2"/>
    <line x1="64" y1="64" x2="85.5" y2="132.5" stroke="#2244FF" stroke-width="3.2"/>
    <line x1="64" y1="64" x2="74.9" y2="136.6" stroke="#2244FF" stroke-width="3.2"/>
    <line x1="64" y1="64" x2="64" y2="138" stroke="#2244FF" stroke-width="3.2"/>
    <line x1="64" y1="64" x2="53.1" y2="136.6" stroke="#2244FF" stroke-width="3.2"/>
    <line x1="64" y1="64" x2="42.5" y2="132.5" stroke="#2244FF" stroke-width="3.2"/>
    <line x1="64" y1="64" x2="32.5" y2="125.9" stroke="#2244FF" stroke-width="3.2"/>
    <line x1="64" y1="64" x2="23.5" y2="117" stroke="#2244FF" stroke-width="3.2"/>
    <line x1="64" y1="64" x2="15.9" y2="106.3" stroke="#2244FF" stroke-width="3.2"/>
    <line x1="64" y1="64" x2="10" y2="94.2" stroke="#2244FF" stroke-width="3.2"/>
    <line x1="64" y1="64" x2="6" y2="81" stroke="#2244FF" stroke-width="3.2"/>
    <line x1="64" y1="64" x2="4" y2="67" stroke="#2244FF" stroke-width="3.2"/>
    <line x1="64" y1="64" x2="4" y2="61" stroke="#2244FF" stroke-width="3.2"/>
    <line x1="64" y1="64" x2="6" y2="47" stroke="#2244FF" stroke-width="3.2"/>
    <line x1="64" y1="64" x2="10" y2="33.8" stroke="#2244FF" stroke-width="3.2"/>
    <line x1="64" y1="64" x2="15.9" y2="21.7" stroke="#2244FF" stroke-width="3.2"/>
    <line x1="64" y1="64" x2="23.5" y2="11" stroke="#2244FF" stroke-width="3.2"/>
    <line x1="64" y1="64" x2="32.5" y2="2.1" stroke="#2244FF" stroke-width="3.2"/>
    <line x1="64" y1="64" x2="42.5" y2="-4.5" stroke="#2244FF" stroke-width="3.2"/>
    <line x1="64" y1="64" x2="53.1" y2="-8.6" stroke="#2244FF" stroke-width="3.2"/>
    <circle cx="64" cy="64" r="12" fill="white"/>
  </g>
</svg>
